<svg width="140" height="40" viewBox="0 0 140 40" fill="none" xmlns="http://www.w3.org/2000/svg">
  <!-- Icono de carpeta/leads -->
  <rect x="2" y="8" width="24" height="20" rx="3" fill="#2196F3"/>
  <path d="M8 14C8 12.8954 8.89543 12 10 12H14C15.1046 12 16 12.8954 16 14V16H10C8.89543 16 8 15.1046 8 14Z" fill="white"/>
  <path d="M10 18H16V22C16 23.1046 15.1046 24 14 24H10C8.89543 24 8 23.1046 8 22V20C8 18.8954 8.89543 18 10 18Z" fill="white" fill-opacity="0.7"/>
  <circle cx="18" cy="18" r="3" fill="#673AB7"/>
  <path d="M17 17L18.5 18.5L20 17" stroke="white" stroke-width="1.5" stroke-linecap="round" stroke-linejoin="round"/>
  
  <!-- Texto Leads Ceftx -->
  <text x="34" y="26" font-family="Arial, sans-serif" font-size="18" font-weight="bold" fill="#2196F3">Leads</text>
  <text x="88" y="26" font-family="Arial, sans-serif" font-size="18" font-weight="normal" fill="#FFFFFF">Ceftx</text>
</svg>
