<svg width="46" height="55" viewBox="0 0 46 55" fill="none" xmlns="http://www.w3.org/2000/svg">
  <g clip-path="url(#clip0)">
    <!-- Icono de carpeta/leads -->
    <rect x="10" y="15" width="26" height="22" rx="3" fill="#2196F3"/>
    <path d="M17 22C17 20.5 18.5 19 20 19H24C25.5 19 27 20.5 27 22V25H20C18.5 25 17 23.5 17 22Z" fill="white"/>
    <path d="M20 27H27V32C27 33.5 25.5 35 24 35H20C18.5 35 17 33.5 17 32V29C17 27.5 18.5 27 20 27Z" fill="white" fill-opacity="0.7"/>
    <circle cx="29" cy="27" r="3" fill="#673AB7"/>
    <path d="M27.5 26L29 27.5L30.5 26" stroke="white" stroke-width="1.5" stroke-linecap="round" stroke-linejoin="round"/>
  </g>
  <defs>
    <clipPath id="clip0">
      <rect width="46" height="55" fill="white"/>
    </clipPath>
  </defs>
</svg>
